<?xml version="1.0" encoding="UTF-8" standalone="no"?>
<svg
   width="188.10062mm"
   height="33.585361mm"
   viewBox="0 0 2665.9931 476.01301"
   version="1.2"
   id="svg214"
   sodipodi:docname="Dotted Notes-2.svg"
   inkscape:version="1.2.1 (9c6d41e, 2022-07-14)"
   xmlns:inkscape="http://www.inkscape.org/namespaces/inkscape"
   xmlns:sodipodi="http://sodipodi.sourceforge.net/DTD/sodipodi-0.dtd"
   xmlns="http://www.w3.org/2000/svg"
   xmlns:svg="http://www.w3.org/2000/svg"
   xmlns:rdf="http://www.w3.org/1999/02/22-rdf-syntax-ns#"
   xmlns:cc="http://creativecommons.org/ns#"
   xmlns:dc="http://purl.org/dc/elements/1.1/">
  <defs
     id="defs218" />
  <sodipodi:namedview
     id="namedview216"
     pagecolor="#ffffff"
     bordercolor="#111111"
     borderopacity="1"
     inkscape:showpageshadow="0"
     inkscape:pageopacity="0"
     inkscape:pagecheckerboard="1"
     inkscape:deskcolor="#d1d1d1"
     inkscape:document-units="mm"
     showgrid="false"
     inkscape:zoom="0.22348485"
     inkscape:cx="-317.69491"
     inkscape:cy="456.40677"
     inkscape:window-width="1309"
     inkscape:window-height="456"
     inkscape:window-x="0"
     inkscape:window-y="38"
     inkscape:window-maximized="0"
     inkscape:current-layer="svg214" />
  <title
     id="title132">Dotted Notes (2)</title>
  <desc
     id="desc134">Generated by MuseScore Studio 4.6.4</desc>
  <polyline
     class="StaffLines"
     fill="none"
     stroke="#000000"
     stroke-width="2.73"
     stroke-linejoin="bevel"
     points="212.598,386.199 2847.4,386.199"
     id="polyline136"
     transform="translate(-181.40705,-271.151)" />
  <polyline
     class="StaffLines"
     fill="none"
     stroke="#000000"
     stroke-width="2.73"
     stroke-linejoin="bevel"
     points="212.598,410.999 2847.4,410.999"
     id="polyline138"
     transform="translate(-181.40705,-271.151)" />
  <polyline
     class="StaffLines"
     fill="none"
     stroke="#000000"
     stroke-width="2.73"
     stroke-linejoin="bevel"
     points="212.598,435.799 2847.4,435.799"
     id="polyline140"
     transform="translate(-181.40705,-271.151)" />
  <polyline
     class="StaffLines"
     fill="none"
     stroke="#000000"
     stroke-width="2.73"
     stroke-linejoin="bevel"
     points="212.598,460.599 2847.4,460.599"
     id="polyline142"
     transform="translate(-181.40705,-271.151)" />
  <polyline
     class="StaffLines"
     fill="none"
     stroke="#000000"
     stroke-width="2.73"
     stroke-linejoin="bevel"
     points="212.598,485.399 2847.4,485.399"
     id="polyline144"
     transform="translate(-181.40705,-271.151)" />
  <polyline
     class="StaffLines"
     fill="none"
     stroke="#000000"
     stroke-width="2.73"
     stroke-linejoin="bevel"
     points="212.598,646.599 2847.4,646.599"
     id="polyline146"
     transform="translate(-181.40705,-271.151)" />
  <polyline
     class="StaffLines"
     fill="none"
     stroke="#000000"
     stroke-width="2.73"
     stroke-linejoin="bevel"
     points="212.598,671.399 2847.4,671.399"
     id="polyline148"
     transform="translate(-181.40705,-271.151)" />
  <polyline
     class="StaffLines"
     fill="none"
     stroke="#000000"
     stroke-width="2.73"
     stroke-linejoin="bevel"
     points="212.598,696.199 2847.4,696.199"
     id="polyline150"
     transform="translate(-181.40705,-271.151)" />
  <polyline
     class="StaffLines"
     fill="none"
     stroke="#000000"
     stroke-width="2.73"
     stroke-linejoin="bevel"
     points="212.598,720.999 2847.4,720.999"
     id="polyline152"
     transform="translate(-181.40705,-271.151)" />
  <polyline
     class="StaffLines"
     fill="none"
     stroke="#000000"
     stroke-width="2.73"
     stroke-linejoin="bevel"
     points="212.598,745.799 2847.4,745.799"
     id="polyline154"
     transform="translate(-181.40705,-271.151)" />
  <polyline
     class="BarLine"
     fill="none"
     stroke="#000000"
     stroke-width="4.46"
     stroke-linejoin="bevel"
     points="1701.98,384.835 1701.98,646.599"
     id="polyline156"
     transform="translate(-181.40705,-271.151)" />
  <polyline
     class="BarLine"
     fill="none"
     stroke="#000000"
     stroke-width="4.46"
     stroke-linejoin="bevel"
     points="214.83,384.835 214.83,646.599"
     id="polyline158"
     transform="translate(-181.40705,-271.151)" />
  <polyline
     class="BarLine"
     fill="none"
     stroke="#000000"
     stroke-width="4.46"
     stroke-linejoin="bevel"
     points="2845.17,384.835 2845.17,646.599"
     id="polyline160"
     transform="translate(-181.40705,-271.151)" />
  <polyline
     class="BarLine"
     fill="none"
     stroke="#000000"
     stroke-width="4.46"
     stroke-linejoin="bevel"
     points="2845.17,645.235 2845.17,747.163"
     id="polyline162"
     transform="translate(-181.40705,-271.151)" />
  <polyline
     class="BarLine"
     fill="none"
     stroke="#000000"
     stroke-width="4.46"
     stroke-linejoin="bevel"
     points="214.83,645.235 214.83,747.163"
     id="polyline164"
     transform="translate(-181.40705,-271.151)" />
  <polyline
     class="BarLine"
     fill="none"
     stroke="#000000"
     stroke-width="4.46"
     stroke-linejoin="bevel"
     points="1701.98,645.235 1701.98,747.163"
     id="polyline166"
     transform="translate(-181.40705,-271.151)" />
  <path
     class="TieSegment"
     stroke="#000000"
     stroke-width="1.24"
     stroke-linecap="round"
     stroke-linejoin="round"
     fill-rule="evenodd"
     d="m 202.64895,134.051 c 113.542,-46.219 454.166,-46.219 567.707,0 -113.541,-38.283 -454.165,-38.283 -567.707,0"
     id="path168" />
  <polyline
     class="Stem"
     fill="none"
     stroke="#000000"
     stroke-width="2.48"
     stroke-linejoin="bevel"
     points="364.762,427.565 364.762,503.999"
     id="polyline170"
     transform="translate(-181.40705,-271.151)" />
  <polyline
     class="Stem"
     fill="none"
     stroke="#000000"
     stroke-width="2.48"
     stroke-linejoin="bevel"
     points="937.428,427.565 937.428,503.999"
     id="polyline172"
     transform="translate(-181.40705,-271.151)" />
  <polyline
     class="Stem"
     fill="none"
     stroke="#000000"
     stroke-width="2.48"
     stroke-linejoin="bevel"
     points="1736.45,427.565 1736.45,503.999"
     id="polyline174"
     transform="translate(-181.40705,-271.151)" />
  <path
     class="Note"
     d="m 754.78095,156.4144 c 0,4.26561 3.0752,9.02721 11.11041,9.02721 10.31681,0 21.12962,-8.43201 21.12962,-17.16161 0,-5.85281 -4.96,-9.12641 -11.11041,-9.12641 -9.62241,0 -21.12962,8.13441 -21.12962,17.26081"
     id="path176"
     style="stroke-width:0.992001" />
  <path
     class="Note"
     d="m 1561.243,160.77921 c -3.2736,0 -3.968,-2.6784 -3.968,-3.5712 0,-4.86081 16.6656,-13.39202 21.328,-13.39202 2.3808,0 3.968,1.3888 3.968,3.57121 0,4.96 -16.7648,13.39201 -21.328,13.39201 m 13.6896,-21.62562 c -9.6224,0 -21.1296,8.0352 -21.1296,17.26081 0,4.26561 3.0752,9.02721 11.1104,9.02721 10.3168,0 21.1296,-8.43201 21.1296,-17.16161 0,-5.85281 -4.96,-9.12641 -11.1104,-9.12641"
     id="path178"
     style="stroke-width:0.992001" />
  <path
     class="Note"
     d="m 189.55496,160.77921 c -3.2736,0 -3.96801,-2.6784 -3.96801,-3.5712 0,-4.86081 16.66562,-13.39202 21.32803,-13.39202 2.3808,0 3.968,1.3888 3.968,3.57121 0,4.96 -16.76482,13.39201 -21.32802,13.39201 m 13.68961,-21.62562 c -9.62241,0 -21.12962,8.0352 -21.12962,17.26081 0,4.26561 3.0752,9.02721 11.11041,9.02721 10.31681,0 21.12962,-8.43201 21.12962,-17.16161 0,-5.85281 -4.96,-9.12641 -11.11041,-9.12641"
     id="path180"
     style="stroke-width:0.992001" />
  <path
     class="Clef"
     d="m 95.918993,209.88322 c -1.984002,0.3968 -3.868804,0.5952 -5.753606,0.5952 -14.185614,0 -26.288026,-9.92001 -26.288026,-24.89922 0,-12.10242 8.531208,-22.91523 17.260817,-30.45443 1.686402,-1.48801 3.273604,-2.87681 4.761605,-4.36481 0.892801,5.35681 1.587202,10.01921 2.281602,14.08642 -9.027209,2.6784 -15.177615,12.20161 -15.177615,21.52642 0,6.944 5.456006,16.46721 13.392014,16.46721 0.7936,0 1.686401,-0.3968 1.686401,-1.2896 0,-0.8928 -0.992001,-1.3888 -2.182402,-2.1824 -3.868804,-2.3808 -6.051206,-4.96 -6.051206,-9.82081 0,-6.05121 4.464004,-10.91201 10.31681,-12.30081 l 5.753606,32.63683 m -8.729609,-101.9777 c 0.892801,-3.96801 5.456006,-14.384017 10.614411,-14.384017 1.488002,0 3.868805,4.860805 3.868805,11.705617 0,10.31681 -7.638409,18.05441 -14.483216,24.80002 -0.5952,-3.968 -1.091201,-7.83681 -1.091201,-12.00321 0,-3.67041 0.297601,-7.04321 1.091201,-10.11841 m 22.816026,83.62568 c 0,7.04321 -2.87681,14.28482 -9.92001,17.16162 -2.083205,-11.90401 -4.761607,-27.67683 -5.456008,-32.04163 8.928008,0 15.376018,6.0512 15.376018,14.88001 m -43.648047,48.80645 c 0,6.54721 5.059205,15.17762 18.451219,15.17762 4.662405,0 8.729609,-1.1904 12.300812,-3.37281 5.356806,-3.7696 6.745606,-10.31681 6.745606,-16.56641 0,-3.86881 -0.5952,-8.33281 -1.5872,-13.98722 -0.2976,-1.984 -0.8928,-4.96 -1.488,-8.82881 9.72161,-3.1744 16.96322,-13.29281 16.96322,-23.51042 0,-14.97922 -10.61442,-25.09763 -25.09763,-25.09763 -0.992001,-5.952 -1.984002,-11.80481 -2.876803,-17.36001 10.515213,-11.01121 17.756813,-23.41123 17.756813,-39.18404 0,-9.027212 -2.7776,-16.368019 -4.3648,-19.939223 -2.3808,-5.059205 -5.257605,-8.531208 -7.043207,-8.531208 -0.6944,0 -3.769603,1.190401 -7.043207,5.059205 -6.348806,7.539208 -8.134408,20.236816 -8.134408,28.569626 0,5.35681 0.496001,10.21761 2.182402,21.32802 -0.0992,0.0992 -5.257605,5.35681 -7.340807,7.04321 -9.027209,8.43201 -21.526422,20.43522 -21.526422,40.27524 0,18.55042 16.169616,33.13284 34.620835,33.13284 2.876803,0 5.555206,-0.2976 7.836808,-0.69441 1.884802,9.52321 2.976003,16.46722 2.976003,21.72483 0,10.31681 -5.257605,15.77281 -15.276815,15.77281 -2.380803,0 -4.464005,-0.496 -4.662405,-0.496 -0.0992,-0.0992 -0.2976,-0.1984 -0.2976,-0.2976 0,-0.1984 0.1984,-0.2976 0.496,-0.3968 4.662405,-0.6944 9.324809,-4.6624 9.324809,-11.01121 0,-5.35681 -4.067204,-11.01121 -11.507211,-11.01121 -6.944007,0 -11.408012,5.6544 -11.408012,12.20161"
     id="path182"
     style="stroke-width:0.992001" />
  <path
     class="Clef"
     d="m 110.60061,387.94719 c 0,2.7776 2.1824,4.96 4.7616,4.96 2.57921,0 4.76161,-2.1824 4.76161,-4.96 0,-2.77761 -2.1824,-5.05921 -4.76161,-5.05921 -2.5792,0 -4.7616,2.2816 -4.7616,5.05921 M 79.451777,375.34877 c -7.539208,0 -13.590414,4.36481 -13.689614,4.36481 -5.852806,4.2656 -9.62241,10.81281 -9.62241,18.05442 0,7.2416 4.166404,12.59841 11.507212,12.59841 6.348806,0 11.308811,-4.2656 11.308811,-10.81281 0,-5.65441 -4.960005,-10.31681 -10.515211,-10.31681 -1.190401,0 -2.281602,0.1984 -3.174403,0.496 -0.992001,0.3968 -2.678402,1.3888 -3.472003,2.0832 0.6944,-4.3648 3.670403,-8.72961 7.539207,-10.81281 2.480003,-1.3888 5.654406,-1.984 9.12641,-1.984 10.11841,0 15.078415,8.13441 15.078415,24.80002 0,12.89602 -8.233609,31.44644 -17.955218,40.17604 -10.316811,9.42401 -20.038421,13.88802 -20.137621,13.88802 0,0 -1.190401,0.6944 -1.190401,1.8848 0,0.1984 0.0992,0.2976 0.0992,0.496 0.297601,0.992 1.190401,1.1904 1.785602,1.1904 0.0992,0 0.3968,-0.0992 0.496001,-0.0992 0.0992,0 11.408011,-4.6624 20.43522,-11.70561 C 90.958988,439.63044 106.6326,421.97282 106.6326,403.72 c 0,-17.26081 -9.324805,-28.37123 -27.180823,-28.37123 m 31.148833,37.10084 c 0,2.77761 2.1824,5.05921 4.7616,5.05921 2.57921,0 4.76161,-2.2816 4.76161,-5.05921 0,-2.7776 -2.1824,-5.0592 -4.76161,-5.0592 -2.5792,0 -4.7616,2.2816 -4.7616,5.0592"
     id="path184"
     style="stroke-width:0.992001" />
  <path
     class="Rest"
     d="m 1159.379,181.11522 c -0.099,-0.0992 -0.2976,-0.2976 -0.5952,-0.6944 l -11.408,-14.08642 c -0.099,-0.0992 -0.1984,-0.3968 -0.1984,-0.5952 0,-0.2976 0.099,-0.6944 0.1984,-0.8928 l 10.1184,-15.27682 c 0.099,-0.1984 0.1984,-0.496 0.1984,-0.6944 v -0.8928 c 0,-0.2976 -0.099,-0.5952 -0.2976,-0.7936 l -16.0704,-21.72482 c 0,0 -0.3968,-0.5952 -0.992,-0.5952 -0.2976,0 -0.496,0.0992 -0.7936,0.2976 -0.3968,0.2976 -0.496,0.6944 -0.496,0.992 0,0.5952 0.2976,1.0912 0.2976,1.0912 l 7.5392,10.31681 c 0.1984,0.2976 0.2976,0.6944 0.2976,1.1904 0,0.3968 -0.099,0.8928 -0.2976,1.19041 l -10.0192,15.27681 c -0.099,0.1984 -0.1984,0.5952 -0.1984,0.7936 v 0.8928 c 0,0.2976 0.099,0.5952 0.2976,0.7936 l 11.1104,13.78882 c -0.3968,-0.0992 -1.2896,-0.2976 -2.48,-0.2976 -5.0592,0 -9.0272,4.1664 -9.0272,9.22561 0,1.3888 0.2976,2.7776 1.0912,3.8688 2.0832,3.1744 9.5232,12.59841 9.5232,12.59841 0,0 0.496,0.5952 1.1904,0.5952 0.1984,0 0.3968,0 0.5952,-0.1984 0.496,-0.3968 0.6944,-0.7936 0.6944,-1.1904 0,-0.3968 -0.1984,-0.6944 -0.2976,-0.8928 -0.2976,-0.496 -3.472,-6.24961 -3.472,-6.24961 0,0 -0.6944,-1.3888 -0.6944,-3.1744 0,-3.1744 2.3808,-5.7536 5.5552,-5.7536 1.2896,0 2.3808,0.3968 3.1744,0.8928 l 3.8688,2.48 c 0,0 0.3968,0.1984 0.7936,0.1984 0.3968,0 0.6944,-0.0992 0.992,-0.496 0.1984,-0.3968 0.2976,-0.5952 0.2976,-0.8928 0,-0.2976 -0.099,-0.496 -0.2976,-0.7936 l -0.1984,-0.2976"
     id="path186"
     style="stroke-width:0.992001" />
  <path
     class="Rest"
     d="m 2302.569,181.11522 c -0.099,-0.0992 -0.2976,-0.2976 -0.5952,-0.6944 l -11.408,-14.08642 c -0.099,-0.0992 -0.1984,-0.3968 -0.1984,-0.5952 0,-0.2976 0.099,-0.6944 0.1984,-0.8928 l 10.1184,-15.27682 c 0.099,-0.1984 0.1984,-0.496 0.1984,-0.6944 v -0.8928 c 0,-0.2976 -0.099,-0.5952 -0.2976,-0.7936 l -16.0704,-21.72482 c 0,0 -0.3968,-0.5952 -0.992,-0.5952 -0.2976,0 -0.496,0.0992 -0.7936,0.2976 -0.3968,0.2976 -0.496,0.6944 -0.496,0.992 0,0.5952 0.2976,1.0912 0.2976,1.0912 l 7.5392,10.31681 c 0.1984,0.2976 0.2976,0.6944 0.2976,1.1904 0,0.3968 -0.099,0.8928 -0.2976,1.19041 l -10.0192,15.27681 c -0.099,0.1984 -0.1984,0.5952 -0.1984,0.7936 v 0.8928 c 0,0.2976 0.099,0.5952 0.2976,0.7936 l 11.1104,13.78882 c -0.3968,-0.0992 -1.2896,-0.2976 -2.48,-0.2976 -5.0592,0 -9.0272,4.1664 -9.0272,9.22561 0,1.3888 0.2976,2.7776 1.0912,3.8688 2.0832,3.1744 9.5232,12.59841 9.5232,12.59841 0,0 0.496,0.5952 1.1904,0.5952 0.1984,0 0.3968,0 0.5952,-0.1984 0.496,-0.3968 0.6944,-0.7936 0.6944,-1.1904 0,-0.3968 -0.1984,-0.6944 -0.2976,-0.8928 -0.2976,-0.496 -3.472,-6.24961 -3.472,-6.24961 0,0 -0.6944,-1.3888 -0.6944,-3.1744 0,-3.1744 2.3808,-5.7536 5.5552,-5.7536 1.2896,0 2.3808,0.3968 3.1744,0.8928 l 3.8688,2.48 c 0,0 0.3968,0.1984 0.7936,0.1984 0.3968,0 0.6944,-0.0992 0.992,-0.496 0.1984,-0.3968 0.2976,-0.5952 0.2976,-0.8928 0,-0.2976 -0.099,-0.496 -0.2976,-0.7936 l -0.1984,-0.2976"
     id="path188"
     style="stroke-width:0.992001" />
  <path
     class="Rest"
     d="m 777.59697,441.51522 c -0.0992,-0.0992 -0.2976,-0.2976 -0.5952,-0.6944 L 765.59376,426.7344 c -0.0992,-0.0992 -0.1984,-0.3968 -0.1984,-0.5952 0,-0.2976 0.0992,-0.6944 0.1984,-0.8928 l 10.11841,-15.27682 c 0.0992,-0.1984 0.1984,-0.496 0.1984,-0.6944 v -0.8928 c 0,-0.2976 -0.0992,-0.5952 -0.2976,-0.7936 l -16.07041,-21.72482 c 0,0 -0.3968,-0.5952 -0.99201,-0.5952 -0.2976,0 -0.496,0.0992 -0.7936,0.2976 -0.3968,0.2976 -0.496,0.6944 -0.496,0.992 0,0.5952 0.2976,1.0912 0.2976,1.0912 l 7.53921,10.31681 c 0.1984,0.2976 0.2976,0.6944 0.2976,1.1904 0,0.3968 -0.0992,0.8928 -0.2976,1.19041 l -10.01921,15.27681 c -0.0992,0.1984 -0.1984,0.5952 -0.1984,0.7936 v 0.8928 c 0,0.2976 0.0992,0.5952 0.2976,0.7936 l 11.11041,13.78882 c -0.3968,-0.0992 -1.2896,-0.2976 -2.48,-0.2976 -5.0592,0 -9.02721,4.1664 -9.02721,9.22561 0,1.3888 0.2976,2.7776 1.0912,3.8688 2.0832,3.1744 9.52321,12.59841 9.52321,12.59841 0,0 0.496,0.5952 1.1904,0.5952 0.1984,0 0.3968,0 0.5952,-0.1984 0.496,-0.3968 0.6944,-0.7936 0.6944,-1.1904 0,-0.3968 -0.1984,-0.6944 -0.2976,-0.8928 -0.2976,-0.496 -3.472,-6.24961 -3.472,-6.24961 0,0 -0.6944,-1.3888 -0.6944,-3.1744 0,-3.1744 2.3808,-5.7536 5.55521,-5.7536 1.2896,0 2.3808,0.3968 3.1744,0.8928 l 3.8688,2.48 c 0,0 0.3968,0.1984 0.7936,0.1984 0.3968,0 0.6944,-0.0992 0.992,-0.496 0.1984,-0.3968 0.2976,-0.5952 0.2976,-0.8928 0,-0.2976 -0.0992,-0.496 -0.2976,-0.7936 l -0.1984,-0.2976"
     id="path190"
     style="stroke-width:0.992001" />
  <path
     class="Rest"
     d="m 1159.379,441.51522 c -0.099,-0.0992 -0.2976,-0.2976 -0.5952,-0.6944 l -11.408,-14.08642 c -0.099,-0.0992 -0.1984,-0.3968 -0.1984,-0.5952 0,-0.2976 0.099,-0.6944 0.1984,-0.8928 l 10.1184,-15.27682 c 0.099,-0.1984 0.1984,-0.496 0.1984,-0.6944 v -0.8928 c 0,-0.2976 -0.099,-0.5952 -0.2976,-0.7936 l -16.0704,-21.72482 c 0,0 -0.3968,-0.5952 -0.992,-0.5952 -0.2976,0 -0.496,0.0992 -0.7936,0.2976 -0.3968,0.2976 -0.496,0.6944 -0.496,0.992 0,0.5952 0.2976,1.0912 0.2976,1.0912 l 7.5392,10.31681 c 0.1984,0.2976 0.2976,0.6944 0.2976,1.1904 0,0.3968 -0.099,0.8928 -0.2976,1.19041 l -10.0192,15.27681 c -0.099,0.1984 -0.1984,0.5952 -0.1984,0.7936 v 0.8928 c 0,0.2976 0.099,0.5952 0.2976,0.7936 l 11.1104,13.78882 c -0.3968,-0.0992 -1.2896,-0.2976 -2.48,-0.2976 -5.0592,0 -9.0272,4.1664 -9.0272,9.22561 0,1.3888 0.2976,2.7776 1.0912,3.8688 2.0832,3.1744 9.5232,12.59841 9.5232,12.59841 0,0 0.496,0.5952 1.1904,0.5952 0.1984,0 0.3968,0 0.5952,-0.1984 0.496,-0.3968 0.6944,-0.7936 0.6944,-1.1904 0,-0.3968 -0.1984,-0.6944 -0.2976,-0.8928 -0.2976,-0.496 -3.472,-6.24961 -3.472,-6.24961 0,0 -0.6944,-1.3888 -0.6944,-3.1744 0,-3.1744 2.3808,-5.7536 5.5552,-5.7536 1.2896,0 2.3808,0.3968 3.1744,0.8928 l 3.8688,2.48 c 0,0 0.3968,0.1984 0.7936,0.1984 0.3968,0 0.6944,-0.0992 0.992,-0.496 0.1984,-0.3968 0.2976,-0.5952 0.2976,-0.8928 0,-0.2976 -0.099,-0.496 -0.2976,-0.7936 l -0.1984,-0.2976"
     id="path192"
     style="stroke-width:0.992001" />
  <path
     class="Rest"
     d="m 1553.803,424.056 c 0,1.3888 0,1.3888 1.3888,1.3888 h 29.4624 c 1.3888,0 1.3888,0 1.3888,-1.3888 v -10.71361 c 0,-1.3888 0,-1.3888 -1.3888,-1.3888 h -29.4624 c -1.3888,0 -1.3888,0 -1.3888,1.3888 V 424.056"
     id="path194"
     style="stroke-width:0.992001" />
  <path
     class="Rest"
     d="m 2302.569,441.51522 c -0.099,-0.0992 -0.2976,-0.2976 -0.5952,-0.6944 l -11.408,-14.08642 c -0.099,-0.0992 -0.1984,-0.3968 -0.1984,-0.5952 0,-0.2976 0.099,-0.6944 0.1984,-0.8928 l 10.1184,-15.27682 c 0.099,-0.1984 0.1984,-0.496 0.1984,-0.6944 v -0.8928 c 0,-0.2976 -0.099,-0.5952 -0.2976,-0.7936 l -16.0704,-21.72482 c 0,0 -0.3968,-0.5952 -0.992,-0.5952 -0.2976,0 -0.496,0.0992 -0.7936,0.2976 -0.3968,0.2976 -0.496,0.6944 -0.496,0.992 0,0.5952 0.2976,1.0912 0.2976,1.0912 l 7.5392,10.31681 c 0.1984,0.2976 0.2976,0.6944 0.2976,1.1904 0,0.3968 -0.099,0.8928 -0.2976,1.19041 l -10.0192,15.27681 c -0.099,0.1984 -0.1984,0.5952 -0.1984,0.7936 v 0.8928 c 0,0.2976 0.099,0.5952 0.2976,0.7936 l 11.1104,13.78882 c -0.3968,-0.0992 -1.2896,-0.2976 -2.48,-0.2976 -5.0592,0 -9.0272,4.1664 -9.0272,9.22561 0,1.3888 0.2976,2.7776 1.0912,3.8688 2.0832,3.1744 9.5232,12.59841 9.5232,12.59841 0,0 0.496,0.5952 1.1904,0.5952 0.1984,0 0.3968,0 0.5952,-0.1984 0.496,-0.3968 0.6944,-0.7936 0.6944,-1.1904 0,-0.3968 -0.1984,-0.6944 -0.2976,-0.8928 -0.2976,-0.496 -3.472,-6.24961 -3.472,-6.24961 0,0 -0.6944,-1.3888 -0.6944,-3.1744 0,-3.1744 2.3808,-5.7536 5.5552,-5.7536 1.2896,0 2.3808,0.3968 3.1744,0.8928 l 3.8688,2.48 c 0,0 0.3968,0.1984 0.7936,0.1984 0.3968,0 0.6944,-0.0992 0.992,-0.496 0.1984,-0.3968 0.2976,-0.5952 0.2976,-0.8928 0,-0.2976 -0.099,-0.496 -0.2976,-0.7936 l -0.1984,-0.2976"
     id="path196"
     style="stroke-width:0.992001" />
  <path
     class="Rest"
     d="m 182.11495,424.056 c 0,1.3888 0,1.3888 1.3888,1.3888 h 29.46243 c 1.3888,0 1.3888,0 1.3888,-1.3888 v -10.71361 c 0,-1.3888 0,-1.3888 -1.3888,-1.3888 h -29.46243 c -1.3888,0 -1.3888,0 -1.3888,1.3888 V 424.056"
     id="path198"
     style="stroke-width:0.992001" />
  <path
     class="RehearsalMark"
     fill="none"
     stroke="#000000"
     stroke-width="3.97"
     stroke-linecap="square"
     stroke-linejoin="miter"
     stroke-miterlimit="2"
     fill-rule="evenodd"
     d="m 142.88695,2.22 h 78.456 v 78.455 h -78.456 V 2.22"
     id="path200" />
  <path
     class="RehearsalMark"
     d="m 192.67895,65.448 h -9.838 V 31.756 h -11.489 V 25.22 c 3.033,-0.135 5.155,-0.337 6.368,-0.606 1.932,-0.427 3.504,-1.281 4.717,-2.561 0.831,-0.876 1.46,-2.044 1.887,-3.504 0.247,-0.876 0.37,-1.527 0.37,-1.954 h 7.985 v 48.853"
     id="path202" />
  <path
     class="RehearsalMark"
     fill="none"
     stroke="#000000"
     stroke-width="3.97"
     stroke-linecap="square"
     stroke-linejoin="miter"
     stroke-miterlimit="2"
     fill-rule="evenodd"
     d="m 1483.843,1.985 h 77.92 V 79.91 h -77.92 V 1.985"
     id="path204" />
  <path
     class="RehearsalMark"
     d="m 1527.493,26.534 c -1.15,-1.37 -2.79,-2.055 -4.92,-2.055 -2.92,0 -4.91,1.089 -5.96,3.268 -0.61,1.258 -0.97,3.257 -1.08,5.997 h -9.33 c 0.15,-4.155 0.91,-7.513 2.25,-10.074 2.56,-4.874 7.11,-7.311 13.65,-7.311 5.16,0 9.27,1.432 12.33,4.296 3.05,2.864 4.58,6.654 4.58,11.371 0,3.616 -1.08,6.828 -3.23,9.635 -1.42,1.865 -3.74,3.942 -6.98,6.233 l -3.84,2.729 c -2.4,1.707 -4.05,2.943 -4.93,3.706 -0.89,0.764 -1.64,1.651 -2.24,2.662 h 21.32 v 8.457 h -33.45 c 0.09,-3.504 0.84,-6.705 2.25,-9.603 1.37,-3.256 4.61,-6.704 9.71,-10.343 4.42,-3.167 7.29,-5.435 8.59,-6.805 2,-2.134 3,-4.47 3,-7.008 0,-2.067 -0.58,-3.785 -1.72,-5.155"
     id="path206" />
  <path
     class="NoteDot"
     d="m 1598.423,152.248 c 0,2.7776 2.1824,4.96001 4.96,4.96001 2.7776,0 4.96,-2.18241 4.96,-4.96001 0,-2.7776 -2.1824,-4.96 -4.96,-4.96 -2.7776,0 -4.96,2.1824 -4.96,4.96"
     id="path208"
     style="stroke-width:0.992001" />
  <path
     class="NoteDot"
     d="m 1598.423,412.648 c 0,2.7776 2.1824,4.96001 4.96,4.96001 2.7776,0 4.96,-2.18241 4.96,-4.96001 0,-2.7776 -2.1824,-4.96 -4.96,-4.96 -2.7776,0 -4.96,2.1824 -4.96,4.96"
     id="path210"
     style="stroke-width:0.992001" />
  <path
     class="Bracket"
     d="m 3.3853512,294.848 c 6.4728,-6.8324 19.0587998,-20.8568 19.0587998,-46.748 0,-32.7236 -14.0243998,-65.8068 -14.0243998,-86.304 0,-21.9356 12.5859998,-42.4328 13.3051998,-43.152 0,-0.3596 0,-0.3596 0,-0.7192 0,-0.3596 0,-0.7192 -0.3596,-1.0788 -0.3596,0 -1.0788,0 -1.4384,0.7192 -0.3596,0.3596 -19.7779998,19.778 -19.7779998,49.2652 0,31.6448 12.5859998,53.94 12.5859998,95.294 0,7.9112 -3.2363998,20.4972 -12.2263998,31.6448 -0.3596,0 -0.3596,0.7192 -0.3596,1.0788 -0.3596,0.3596 0,0.7192 0.3596,1.0788 8.99,11.1476 12.2263998,23.7336 12.2263998,31.6448 0,41.354 -12.5859998,63.6492 -12.5859998,95.294 0,29.1276 19.4183998,48.9056 19.7779998,49.2652 0.3596,0.7192 1.0788,1.0788 1.4384,0.7192 0.3596,-0.3596 0.7192,-0.7192 0.3596,-1.0788 0,0 0,-0.3596 0,-0.7192 -0.7192,-0.7192 -13.3051998,-21.2164 -13.3051998,-43.152 0,-20.4972 14.0243998,-53.5804 14.0243998,-86.304 0,-26.2508 -12.5859998,-39.9156 -19.0587998,-46.748"
     id="path212"
     style="stroke-width:3.596" />
  <metadata
     id="metadata337">
    <rdf:RDF>
      <cc:Work
         rdf:about="">
        <dc:title>Dotted Notes (2)</dc:title>
      </cc:Work>
    </rdf:RDF>
  </metadata>
</svg>
