<?xml version="1.0" encoding="UTF-8" standalone="no"?>
<svg
   width="185.89992mm"
   height="34.904568mm"
   viewBox="0 0 2634.8021 494.71042"
   version="1.2"
   id="svg2419"
   sodipodi:docname="Mikrokosmos scales SVG-2.svg"
   inkscape:version="1.2.1 (9c6d41e, 2022-07-14)"
   xmlns:inkscape="http://www.inkscape.org/namespaces/inkscape"
   xmlns:sodipodi="http://sodipodi.sourceforge.net/DTD/sodipodi-0.dtd"
   xmlns="http://www.w3.org/2000/svg"
   xmlns:svg="http://www.w3.org/2000/svg"
   xmlns:rdf="http://www.w3.org/1999/02/22-rdf-syntax-ns#"
   xmlns:cc="http://creativecommons.org/ns#"
   xmlns:dc="http://purl.org/dc/elements/1.1/">
  <defs
     id="defs2423" />
  <sodipodi:namedview
     id="namedview2421"
     pagecolor="#ffffff"
     bordercolor="#111111"
     borderopacity="1"
     inkscape:showpageshadow="0"
     inkscape:pageopacity="0"
     inkscape:pagecheckerboard="1"
     inkscape:deskcolor="#d1d1d1"
     inkscape:document-units="mm"
     showgrid="false"
     inkscape:zoom="0.22348485"
     inkscape:cx="-326.64406"
     inkscape:cy="434.03389"
     inkscape:window-width="1309"
     inkscape:window-height="456"
     inkscape:window-x="0"
     inkscape:window-y="38"
     inkscape:window-maximized="0"
     inkscape:current-layer="svg2419" />
  <title
     id="title2323">Mikrokosmos scales SVG (3)</title>
  <desc
     id="desc2325">Generated by MuseScore Studio 4.5.1</desc>
  <polyline
     class="StaffLines"
     fill="none"
     stroke="#000000"
     stroke-width="2.73"
     stroke-linejoin="bevel"
     points="212.598,386.198 2847.4,386.198"
     id="polyline2327"
     transform="translate(-212.598,-350.2876)" />
  <polyline
     class="StaffLines"
     fill="none"
     stroke="#000000"
     stroke-width="2.73"
     stroke-linejoin="bevel"
     points="212.598,410.998 2847.4,410.998"
     id="polyline2329"
     transform="translate(-212.598,-350.2876)" />
  <polyline
     class="StaffLines"
     fill="none"
     stroke="#000000"
     stroke-width="2.73"
     stroke-linejoin="bevel"
     points="212.598,435.798 2847.4,435.798"
     id="polyline2331"
     transform="translate(-212.598,-350.2876)" />
  <polyline
     class="StaffLines"
     fill="none"
     stroke="#000000"
     stroke-width="2.73"
     stroke-linejoin="bevel"
     points="212.598,460.598 2847.4,460.598"
     id="polyline2333"
     transform="translate(-212.598,-350.2876)" />
  <polyline
     class="StaffLines"
     fill="none"
     stroke="#000000"
     stroke-width="2.73"
     stroke-linejoin="bevel"
     points="212.598,485.398 2847.4,485.398"
     id="polyline2335"
     transform="translate(-212.598,-350.2876)" />
  <polyline
     class="StaffLines"
     fill="none"
     stroke="#000000"
     stroke-width="2.73"
     stroke-linejoin="bevel"
     points="212.598,720.998 2847.4,720.998"
     id="polyline2337"
     transform="translate(-212.598,-350.2876)" />
  <polyline
     class="StaffLines"
     fill="none"
     stroke="#000000"
     stroke-width="2.73"
     stroke-linejoin="bevel"
     points="212.598,745.798 2847.4,745.798"
     id="polyline2339"
     transform="translate(-212.598,-350.2876)" />
  <polyline
     class="StaffLines"
     fill="none"
     stroke="#000000"
     stroke-width="2.73"
     stroke-linejoin="bevel"
     points="212.598,770.598 2847.4,770.598"
     id="polyline2341"
     transform="translate(-212.598,-350.2876)" />
  <polyline
     class="StaffLines"
     fill="none"
     stroke="#000000"
     stroke-width="2.73"
     stroke-linejoin="bevel"
     points="212.598,795.398 2847.4,795.398"
     id="polyline2343"
     transform="translate(-212.598,-350.2876)" />
  <polyline
     class="StaffLines"
     fill="none"
     stroke="#000000"
     stroke-width="2.73"
     stroke-linejoin="bevel"
     points="212.598,820.198 2847.4,820.198"
     id="polyline2345"
     transform="translate(-212.598,-350.2876)" />
  <polyline
     class="BarLine"
     fill="none"
     stroke="#000000"
     stroke-dasharray="17.856, 8.928"
     stroke-dashoffset="0"
     stroke-width="4.46"
     stroke-linejoin="bevel"
     points="214.83,384.834 214.83,720.998"
     id="polyline2347"
     transform="translate(-212.598,-350.2876)" />
  <polyline
     class="BarLine"
     fill="none"
     stroke="#000000"
     stroke-dasharray="17.856, 8.928"
     stroke-dashoffset="0"
     stroke-width="4.46"
     stroke-linejoin="bevel"
     points="2845.17,384.834 2845.17,720.998"
     id="polyline2349"
     transform="translate(-212.598,-350.2876)" />
  <polyline
     class="BarLine"
     fill="none"
     stroke="#000000"
     stroke-dasharray="17.856, 8.928"
     stroke-dashoffset="0"
     stroke-width="4.46"
     stroke-linejoin="bevel"
     points="214.83,719.634 214.83,821.562"
     id="polyline2351"
     transform="translate(-212.598,-350.2876)" />
  <polyline
     class="BarLine"
     fill="none"
     stroke="#000000"
     stroke-dasharray="17.856, 8.928"
     stroke-dashoffset="0"
     stroke-width="4.46"
     stroke-linejoin="bevel"
     points="2845.17,719.634 2845.17,821.562"
     id="polyline2353"
     transform="translate(-212.598,-350.2876)" />
  <polyline
     class="Stem"
     fill="none"
     stroke="#000000"
     stroke-width="2.48"
     stroke-linejoin="bevel"
     points="363.119,427.962 363.119,503.998"
     id="polyline2355"
     transform="translate(-212.598,-350.2876)" />
  <polyline
     class="Stem"
     fill="none"
     stroke="#000000"
     stroke-width="2.48"
     stroke-linejoin="bevel"
     points="2346.65,378.362 2346.65,460.598"
     id="polyline2357"
     transform="translate(-212.598,-350.2876)" />
  <polyline
     class="Stem"
     fill="none"
     stroke="#000000"
     stroke-width="2.48"
     stroke-linejoin="bevel"
     points="859.056,415.661 859.056,497.798"
     id="polyline2359"
     transform="translate(-212.598,-350.2876)" />
  <polyline
     class="Stem"
     fill="none"
     stroke="#000000"
     stroke-width="2.48"
     stroke-linejoin="bevel"
     points="1354.89,403.261 1354.89,485.398"
     id="polyline2361"
     transform="translate(-212.598,-350.2876)" />
  <polyline
     class="Stem"
     fill="none"
     stroke="#000000"
     stroke-width="2.48"
     stroke-linejoin="bevel"
     points="1850.77,390.861 1850.77,472.998"
     id="polyline2363"
     transform="translate(-212.598,-350.2876)" />
  <polyline
     class="Stem"
     fill="none"
     stroke="#000000"
     stroke-width="2.48"
     stroke-linejoin="bevel"
     points="2346.65,737.962 2346.65,820.198"
     id="polyline2365"
     transform="translate(-212.598,-350.2876)" />
  <polyline
     class="Stem"
     fill="none"
     stroke="#000000"
     stroke-width="2.48"
     stroke-linejoin="bevel"
     points="396.149,778.237 396.149,702.398"
     id="polyline2367"
     transform="translate(-212.598,-350.2876)" />
  <polyline
     class="Stem"
     fill="none"
     stroke="#000000"
     stroke-width="2.48"
     stroke-linejoin="bevel"
     points="859.056,775.261 859.056,844.998"
     id="polyline2369"
     transform="translate(-212.598,-350.2876)" />
  <polyline
     class="Stem"
     fill="none"
     stroke="#000000"
     stroke-width="2.48"
     stroke-linejoin="bevel"
     points="1354.89,762.861 1354.89,838.798"
     id="polyline2371"
     transform="translate(-212.598,-350.2876)" />
  <polyline
     class="Stem"
     fill="none"
     stroke="#000000"
     stroke-width="2.48"
     stroke-linejoin="bevel"
     points="1850.77,750.461 1850.77,832.598"
     id="polyline2373"
     transform="translate(-212.598,-350.2876)" />
  <path
     class="Note"
     fill="#ffffff"
     d="m 1648.5384,49.8976 c 10.7136,0 23.9072,-9.2256 23.9072,-18.6496 0,-5.6544 -4.8608,-9.3248 -11.904,-9.3248 -13.0944,0 -23.6096,9.0272 -23.6096,18.6496 0,5.8528 5.0592,9.3248 11.6064,9.3248"
     id="path2375"
     style="stroke-width:0.992" />
  <path
     class="Note"
     d="m 1660.6408,21.9232 c -13.0944,0 -23.7088,9.0272 -23.7088,18.6496 0,5.952 5.1584,9.3248 11.6064,9.3248 10.7136,0 23.9072,-9.1264 23.9072,-18.6496 0,-5.6544 -4.8608,-9.3248 -11.8048,-9.3248 m 1.2896,9.2256 h -9.0272 v 4.0672 h 7.936 v 3.0752 h -7.936 v 7.8368 h -3.6704 V 27.9744 h 12.6976 v 3.1744"
     id="path2377"
     style="stroke-width:0.992" />
  <path
     class="Note"
     fill="#ffffff"
     d="m 2144.4184,37.4976 c 10.7136,0 23.9072,-9.2256 23.9072,-18.6496 0,-5.6544 -4.8608,-9.3248 -11.904,-9.3248 -13.0944,0 -23.6096,9.0272 -23.6096,18.6496 0,5.8528 5.0592,9.3248 11.6064,9.3248"
     id="path2379"
     style="stroke-width:0.992" />
  <path
     class="Note"
     d="m 2156.5208,9.424 c -13.0944,0 -23.7088,9.0272 -23.7088,18.6496 0,5.8528 5.1584,9.3248 11.7056,9.3248 10.6144,0 23.808,-9.2256 23.808,-18.6496 0,-5.6544 -4.8608,-9.3248 -11.8048,-9.3248 m -6.944,19.84 c 2.1824,0 4.3648,-1.488 4.5632,-3.7696 h -4.0672 v -3.0752 h 7.2416 v 8.3328 l -2.2816,1.3888 -0.3968,-2.48 c -1.3888,1.8848 -3.0752,2.7776 -5.456,2.7776 -4.8608,0 -8.432,-3.8688 -8.432,-9.3248 0,-5.6544 3.472,-9.3248 8.7296,-9.3248 4.3648,0 7.3408,2.3808 7.8368,6.0512 h -3.472 c -0.7936,-2.0832 -2.2816,-2.8768 -4.3648,-2.8768 -3.1744,0 -5.0592,2.1824 -5.0592,6.0512 0,3.7696 2.1824,6.2496 5.1584,6.2496"
     id="path2381"
     style="stroke-width:0.992" />
  <path
     class="Note"
     fill="#ffffff"
     d="m 160.8874,87.0976 c 10.7136,0 23.9072,-9.2256 23.9072,-18.6496 0,-5.6544 -4.8608,-9.3248 -11.904,-9.3248 -13.0944,0 -23.6096,9.0272 -23.6096,18.6496 0,5.8528 5.0592,9.3248 11.6064,9.3248"
     id="path2383"
     style="stroke-width:0.992" />
  <path
     class="Note"
     d="m 172.9898,59.024 c -13.0944,0 -23.7088,9.0272 -23.7088,18.6496 0,5.952 5.0592,9.3248 11.6064,9.3248 10.7136,0 23.9072,-9.1264 23.9072,-18.6496 0,-5.6544 -4.8608,-9.3248 -11.8048,-9.3248 m -6.1504,23.9072 c -5.0592,0 -8.3328,-3.5712 -8.3328,-9.5232 0,-5.952 3.2736,-9.5232 8.5312,-9.5232 4.0672,0 7.3408,2.2816 7.6384,6.5472 h -3.5712 c -0.5952,-2.3808 -1.8848,-3.3728 -3.968,-3.3728 -2.976,0 -4.8608,2.2816 -4.8608,6.448 0,3.968 1.7856,6.2496 4.7616,6.2496 2.2816,0 3.7696,-1.0912 4.0672,-3.3728 h 3.6704 c -0.1984,4.1664 -3.2736,6.5472 -7.936,6.5472"
     id="path2385"
     style="stroke-width:0.992" />
  <path
     class="Note"
     fill="#ffffff"
     d="m 656.8244,74.6976 c 10.7136,0 23.9072,-9.2256 23.9072,-18.6496 0,-5.6544 -4.8608,-9.3248 -11.904,-9.3248 -13.0944,0 -23.6096,9.0272 -23.6096,18.6496 0,5.8528 5.0592,9.3248 11.6064,9.3248"
     id="path2387"
     style="stroke-width:0.992" />
  <path
     class="Note"
     d="m 668.8276,46.7232 c -13.0944,0 -23.6096,8.928 -23.6096,18.6496 0,5.8528 5.0592,9.3248 11.6064,9.3248 10.6144,0 23.808,-9.2256 23.808,-18.6496 0,-5.7536 -4.8608,-9.3248 -11.8048,-9.3248 m -4.464,23.0144 h -7.0432 V 51.584 h 7.0432 c 5.5552,0 7.936,3.7696 7.936,9.0272 0,5.2576 -2.3808,9.1264 -7.936,9.1264 m 0,-14.9792 h -3.3728 v 11.8048 h 3.3728 c 2.7776,0 4.1664,-1.8848 4.1664,-5.8528 0,-4.0672 -1.3888,-5.952 -4.1664,-5.952"
     id="path2389"
     style="stroke-width:0.992" />
  <path
     class="Note"
     fill="#ffffff"
     d="m 1152.6584,62.2976 c 10.7136,0 23.9072,-9.2256 23.9072,-18.6496 0,-5.6544 -4.8608,-9.3248 -11.904,-9.3248 -13.0944,0 -23.6096,9.0272 -23.6096,18.6496 0,5.8528 5.0592,9.3248 11.6064,9.3248"
     id="path2391"
     style="stroke-width:0.992" />
  <path
     class="Note"
     d="m 1164.7608,34.3232 c -13.0944,0 -23.7088,9.0272 -23.7088,18.6496 0,5.8528 5.1584,9.3248 11.6064,9.3248 10.7136,0 23.9072,-9.2256 23.9072,-18.6496 0,-5.6544 -4.8608,-9.3248 -11.8048,-9.3248 m 0,22.9152 h -13.0944 V 39.68 h 12.6976 v 2.976 h -9.0272 v 4.0672 h 8.3328 v 2.976 h -8.3328 v 4.5632 h 9.424 v 2.976"
     id="path2393"
     style="stroke-width:0.992" />
  <path
     class="Note"
     fill="#ffffff"
     d="m 656.8244,434.2976 c 10.7136,0 23.9072,-9.2256 23.9072,-18.6496 0,-5.6544 -4.8608,-9.3248 -11.904,-9.3248 -13.0944,0 -23.6096,9.0272 -23.6096,18.6496 0,5.8528 5.0592,9.3248 11.6064,9.3248"
     id="path2395"
     style="stroke-width:0.992" />
  <path
     class="Note"
     d="m 668.8276,406.3232 c -13.0944,0 -23.6096,8.928 -23.6096,18.6496 0,5.8528 5.0592,9.3248 11.6064,9.3248 10.6144,0 23.808,-9.2256 23.808,-18.6496 0,-5.7536 -4.8608,-9.3248 -11.8048,-9.3248 m -4.464,23.0144 h -7.0432 V 411.184 h 7.0432 c 5.5552,0 7.936,3.7696 7.936,9.0272 0,5.2576 -2.3808,9.1264 -7.936,9.1264 m 0,-14.9792 h -3.3728 v 11.8048 h 3.3728 c 2.7776,0 4.1664,-1.8848 4.1664,-5.8528 0,-4.0672 -1.3888,-5.952 -4.1664,-5.952"
     id="path2397"
     style="stroke-width:0.992" />
  <path
     class="Note"
     fill="#ffffff"
     d="m 1152.6584,421.8976 c 10.7136,0 23.9072,-9.2256 23.9072,-18.6496 0,-5.6544 -4.8608,-9.3248 -11.904,-9.3248 -13.0944,0 -23.6096,9.0272 -23.6096,18.6496 0,5.8528 5.0592,9.3248 11.6064,9.3248"
     id="path2399"
     style="stroke-width:0.992" />
  <path
     class="Note"
     d="m 1164.7608,393.9232 c -13.0944,0 -23.7088,9.0272 -23.7088,18.6496 0,5.8528 5.1584,9.3248 11.6064,9.3248 10.7136,0 23.9072,-9.2256 23.9072,-18.6496 0,-5.6544 -4.8608,-9.3248 -11.8048,-9.3248 m 0,22.9152 h -13.0944 V 399.28 h 12.6976 v 2.976 h -9.0272 v 4.0672 h 8.3328 v 2.976 h -8.3328 v 4.5632 h 9.424 v 2.976"
     id="path2401"
     style="stroke-width:0.992" />
  <path
     class="Note"
     fill="#ffffff"
     d="m 1648.5384,409.4976 c 10.7136,0 23.9072,-9.2256 23.9072,-18.6496 0,-5.6544 -4.8608,-9.3248 -11.904,-9.3248 -13.0944,0 -23.6096,9.0272 -23.6096,18.6496 0,5.8528 5.0592,9.3248 11.6064,9.3248"
     id="path2403"
     style="stroke-width:0.992" />
  <path
     class="Note"
     d="m 1660.6408,381.5232 c -13.0944,0 -23.7088,9.0272 -23.7088,18.6496 0,5.952 5.1584,9.3248 11.6064,9.3248 10.7136,0 23.9072,-9.1264 23.9072,-18.6496 0,-5.6544 -4.8608,-9.3248 -11.8048,-9.3248 m 1.2896,9.2256 h -9.0272 v 4.0672 h 7.936 v 3.0752 h -7.936 v 7.8368 h -3.6704 v -18.1536 h 12.6976 v 3.1744"
     id="path2405"
     style="stroke-width:0.992" />
  <path
     class="Note"
     fill="#ffffff"
     d="m 160.8874,446.6976 c 10.7136,0 23.9072,-9.2256 23.9072,-18.6496 0,-5.6544 -4.8608,-9.3248 -11.904,-9.3248 -13.0944,0 -23.6096,9.0272 -23.6096,18.6496 0,5.8528 5.0592,9.3248 11.6064,9.3248"
     id="path2407"
     style="stroke-width:0.992" />
  <path
     class="Note"
     d="m 172.9898,418.624 c -13.0944,0 -23.7088,9.0272 -23.7088,18.6496 0,5.952 5.0592,9.3248 11.6064,9.3248 10.7136,0 23.9072,-9.1264 23.9072,-18.6496 0,-5.6544 -4.8608,-9.3248 -11.8048,-9.3248 m -6.1504,23.9072 c -5.0592,0 -8.3328,-3.5712 -8.3328,-9.5232 0,-5.952 3.2736,-9.5232 8.5312,-9.5232 4.0672,0 7.3408,2.2816 7.6384,6.5472 h -3.5712 c -0.5952,-2.3808 -1.8848,-3.3728 -3.968,-3.3728 -2.976,0 -4.8608,2.2816 -4.8608,6.448 0,3.968 1.7856,6.2496 4.7616,6.2496 2.2816,0 3.7696,-1.0912 4.0672,-3.3728 h 3.6704 c -0.1984,4.1664 -3.2736,6.5472 -7.936,6.5472"
     id="path2409"
     style="stroke-width:0.992" />
  <path
     class="Note"
     fill="#ffffff"
     d="m 2144.4184,397.0976 c 10.7136,0 23.9072,-9.2256 23.9072,-18.6496 0,-5.6544 -4.8608,-9.3248 -11.904,-9.3248 -13.0944,0 -23.6096,9.0272 -23.6096,18.6496 0,5.8528 5.0592,9.3248 11.6064,9.3248"
     id="path2411"
     style="stroke-width:0.992" />
  <path
     class="Note"
     d="m 2156.5208,369.024 c -13.0944,0 -23.7088,9.0272 -23.7088,18.6496 0,5.8528 5.1584,9.3248 11.7056,9.3248 10.6144,0 23.808,-9.2256 23.808,-18.6496 0,-5.6544 -4.8608,-9.3248 -11.8048,-9.3248 m -6.944,19.84 c 2.1824,0 4.3648,-1.488 4.5632,-3.7696 h -4.0672 v -3.0752 h 7.2416 v 8.3328 l -2.2816,1.3888 -0.3968,-2.48 c -1.3888,1.8848 -3.0752,2.7776 -5.456,2.7776 -4.8608,0 -8.432,-3.8688 -8.432,-9.3248 0,-5.6544 3.472,-9.3248 8.7296,-9.3248 4.3648,0 7.3408,2.3808 7.8368,6.0512 h -3.472 c -0.7936,-2.0832 -2.2816,-2.8768 -4.3648,-2.8768 -3.1744,0 -5.0592,2.1824 -5.0592,6.0512 0,3.7696 2.1824,6.2496 5.1584,6.2496"
     id="path2413"
     style="stroke-width:0.992" />
  <path
     class="Clef"
     d="m 78.8144,112.3936 c 0,7.0432 -2.8768,14.2848 -9.92,17.1616 -2.0832,-11.904 -4.7616,-27.6768 -5.456,-32.0416 8.928,0 15.376,6.0512 15.376,14.88 m -14.0864,18.352 c -1.984,0.3968 -3.8688,0.5952 -5.7536,0.5952 -14.1856,0 -26.288,-9.92 -26.288,-24.8992 0,-12.1024 8.5312,-22.9152 17.2608,-30.4544 1.6864,-1.488 3.2736,-2.8768 4.7616,-4.3648 0.8928,5.3568 1.5872,10.0192 2.2816,14.0864 -9.0272,2.6784 -15.1776,12.2016 -15.1776,21.5264 0,6.944 5.456,16.4672 13.392,16.4672 0.7936,0 1.6864,-0.3968 1.6864,-1.2896 0,-0.8928 -0.992,-1.3888 -2.1824,-2.1824 -3.8688,-2.3808 -6.0512,-4.96 -6.0512,-9.8208 0,-6.0512 4.464,-10.912 10.3168,-12.3008 l 5.7536,32.6368 M 55.9984,28.768 c 0.8928,-3.968 5.456,-14.384 10.6144,-14.384 1.488,0 3.8688,4.8608 3.8688,11.7056 0,10.3168 -7.6384,18.0544 -14.4832,24.8 -0.5952,-3.968 -1.0912,-7.8368 -1.0912,-12.0032 0,-3.6704 0.2976,-7.0432 1.0912,-10.1184 M 35.1664,161.2 c 0,6.5472 5.0592,15.1776 18.4512,15.1776 4.6624,0 8.7296,-1.1904 12.3008,-3.3728 5.3568,-3.7696 6.7456,-10.3168 6.7456,-16.5664 0,-3.8688 -0.5952,-8.3328 -1.5872,-13.9872 -0.2976,-1.984 -0.8928,-4.96 -1.488,-8.8288 9.7216,-3.1744 16.9632,-13.2928 16.9632,-23.5104 0,-14.9792 -10.6144,-25.0976 -25.0976,-25.0976 -0.992,-5.952 -1.984,-11.8048 -2.8768,-17.36 10.5152,-11.0112 17.7568,-23.4112 17.7568,-39.184 0,-9.0272 -2.7776,-16.368 -4.3648,-19.9392 C 69.5888,3.472 66.712,0 64.9264,0 64.232,0 61.1568,1.1904 57.8832,5.0592 c -6.3488,7.5392 -8.1344,20.2368 -8.1344,28.5696 0,5.3568 0.496,10.2176 2.1824,21.328 C 51.832,55.056 46.6736,60.3136 44.5904,62 35.5632,70.432 23.064,82.4352 23.064,102.2752 c 0,18.5504 16.1696,33.1328 34.6208,33.1328 2.8768,0 5.5552,-0.2976 7.8368,-0.6944 1.8848,9.5232 2.976,16.4672 2.976,21.7248 0,10.3168 -5.2576,15.7728 -15.2768,15.7728 -2.3808,0 -4.464,-0.496 -4.6624,-0.496 -0.0992,-0.0992 -0.2976,-0.1984 -0.2976,-0.2976 0,-0.1984 0.1984,-0.2976 0.496,-0.3968 4.6624,-0.6944 9.3248,-4.6624 9.3248,-11.0112 0,-5.3568 -4.0672,-11.0112 -11.5072,-11.0112 -6.944,0 -11.408,5.6544 -11.408,12.2016"
     id="path2415"
     style="stroke-width:0.992" />
  <path
     class="Clef"
     d="m 48.2608,370.6112 c -7.5392,0 -13.5904,4.3648 -13.6896,4.3648 -5.7536,4.2656 -8.0352,9.3248 -8.928,12.7968 -0.496,1.7856 -0.6944,3.5712 -0.6944,5.2576 0,2.3808 0.3968,4.5632 1.2896,6.448 1.1904,2.6784 3.472,4.5632 6.448,5.5552 1.1904,0.3968 2.48,0.5952 3.7696,0.5952 2.1824,0 4.464,-0.5952 6.3488,-1.6864 3.0752,-1.6864 4.96,-5.2576 4.96,-9.1264 0,-3.472 -1.7856,-6.6464 -4.7616,-8.5312 -2.0832,-1.3888 -4.0672,-1.7856 -5.7536,-1.7856 -1.1904,0 -2.2816,0.1984 -3.1744,0.496 -0.992,0.3968 -2.6784,1.3888 -3.472,2.0832 0.2976,-1.8848 1.488,-4.7616 2.5792,-6.3488 1.0912,-1.5872 3.2736,-3.5712 4.96,-4.464 2.48,-1.3888 5.6544,-1.984 9.1264,-1.984 10.1184,0 15.0784,8.1344 15.0784,24.8 0,9.2256 -3.472,18.0544 -6.448,23.9072 -3.2736,6.5472 -7.6384,12.7968 -11.5072,16.2688 -10.3168,9.424 -20.0384,13.888 -20.1376,13.888 0,0 -1.1904,0.6944 -1.1904,1.8848 0,0.1984 0.0992,0.2976 0.0992,0.496 0.2976,0.992 1.1904,1.1904 1.7856,1.1904 0.0992,0 0.3968,-0.0992 0.496,-0.0992 0.0992,0 11.408,-4.6624 20.4352,-11.7056 5.0592,-3.6704 9.6224,-7.6384 13.5904,-11.904 3.5712,-3.8688 6.6464,-8.0352 9.1264,-12.2016 4.3648,-7.44 6.8448,-15.1776 6.8448,-21.824 0,-8.2336 -2.1824,-15.0784 -6.2496,-19.9392 -4.6624,-5.5552 -11.7056,-8.432 -20.9312,-8.432 m 31.1488,12.5984 c 0,2.7776 2.1824,4.96 4.7616,4.96 2.5792,0 4.7616,-2.1824 4.7616,-4.96 0,-2.7776 -2.1824,-5.0592 -4.7616,-5.0592 -2.5792,0 -4.7616,2.2816 -4.7616,5.0592 m 0,24.5024 c 0,2.7776 2.1824,5.0592 4.7616,5.0592 2.5792,0 4.7616,-2.2816 4.7616,-5.0592 0,-2.7776 -2.1824,-5.0592 -4.7616,-5.0592 -2.5792,0 -4.7616,2.2816 -4.7616,5.0592"
     id="path2417"
     style="stroke-width:0.992" />
  <metadata
     id="metadata3759">
    <rdf:RDF>
      <cc:Work
         rdf:about="">
        <dc:title>Mikrokosmos scales SVG (2)</dc:title>
      </cc:Work>
    </rdf:RDF>
  </metadata>
</svg>
